<?xml version="1.0" encoding="UTF-8"?>
<svg id="_レイヤー_2" data-name="レイヤー 2" xmlns="http://www.w3.org/2000/svg" viewBox="0 0 36.84 36.37">
  <defs>
    <style>
      .cls-1 {
        fill: #000;
      }

      .cls-1, .cls-2, .cls-3, .cls-4 {
        stroke-width: 0px;
      }

      .cls-2 {
        fill: #013b85;
      }

      .cls-3 {
        fill: #fff;
      }

      .cls-4 {
        fill: #0083ce;
      }
    </style>
  </defs>
  <g id="_レイヤー_1-2" data-name="レイヤー 1">
    <g>
      <rect class="cls-2" x="0" y="9.95" width="25.89" height="26.43"/>
      <rect class="cls-4" x="10.16" y="0" width="26.68" height="26.42"/>
      <path class="cls-1" d="M11.21,1.42l.38-1.42H3.52L.85,9.95h1.7l.71-2.68h5.4l.39-1.44H3.65l1.18-4.41h6.38Z"/>
      <polygon class="cls-3" points="2.55 9.95 1.7 13.13 0 13.13 .85 9.95 2.55 9.95"/>
      <path class="cls-3" d="M22.45,12.1l-2.01,7.53c-.66,2.43-2.29,4.43-5.55,4.43-1.46,0-2.81-.67-3.3-2.18l1.32-1.03c.42,1.17,1.33,1.73,2.34,1.73,1.86,0,2.97-.93,3.55-3.09l1.98-7.39h1.67Z"/>
      <polygon class="cls-3" points="22.83 10.68 22.45 12.1 15.29 12.1 15.67 10.68 22.83 10.68"/>
      <polygon class="cls-3" points="23.46 8.2 23.08 9.62 18.24 9.62 18.62 8.2 23.46 8.2"/>
      <polygon class="cls-3" points="24.16 5.72 23.78 7.14 21.28 7.14 21.67 5.72 24.16 5.72"/>
      <path class="cls-1" d="M29.98,26.42l-2.67,9.95h1.7l2.66-9.95h-1.69Z"/>
      <polygon class="cls-3" points="36.84 23.24 36.46 24.67 32.14 24.67 31.67 26.42 29.98 26.42 30.45 24.67 26.13 24.67 26.51 23.24 36.84 23.24"/>
    </g>
  </g>
</svg>