<?xml version="1.0" encoding="UTF-8"?>
<svg id="_アウトライン化" data-name="アウトライン化" xmlns="http://www.w3.org/2000/svg" viewBox="0 0 250 100">
  <defs>
    <style>
      .cls-1 {
        fill: none;
        stroke: #ffd59a;
        stroke-linecap: round;
        stroke-miterlimit: 10;
        stroke-width: 2px;
      }

      .cls-2 {
        fill: #ffd59a;
      }

      .cls-3 {
        fill: #ffd59a;
      }
    </style>
  </defs>
  <g>
    <path class="cls-3" d="M36.66,18.58c0-1.28.19-2.05.58-2.56.29-.4.69-.56,1.15-.56.14,0,.29.03.45.05,4.87,1.15,8.52,6.75,9.83,15.59.03.16.05.32.05.48,0,.51-.16.85-.45,1.01-.08.03-.18.05-.26.05-.32,0-.58-.32-.67-.85-1.22-7.68-4.24-12.9-8.55-13.78-.08-.03-.16-.03-.24-.03-.42,0-.53.35-.53,1.17v15.54c0,.61-.29.96-.69.96s-.67-.37-.67-.96v-16.13Z"/>
    <path class="cls-3" d="M82.64,34.71c0,.59-.29.96-.67.96s-.69-.35-.69-.96v-15.54c0-.83-.11-1.17-.53-1.17-.08,0-.16,0-.24.03-4.31.88-7.33,6.1-8.55,13.78-.1.53-.35.85-.67.85-.08,0-.18-.03-.26-.05-.29-.16-.45-.51-.45-1.01,0-.16.02-.32.05-.48,1.31-8.85,4.96-14.45,9.83-15.59.16-.03.3-.05.45-.05.46,0,.86.16,1.15.56.38.51.58,1.28.58,2.56v16.13Z"/>
    <circle class="cls-3" cx="45.78" cy="53.04" r="5"/>
    <circle class="cls-3" cx="72.78" cy="53.04" r="5"/>
    <path class="cls-3" d="M59.03,62.1l-2.17-2.85c-.5-.65-.04-1.59.78-1.61l4.25-.07c.82-.01,1.31.91.83,1.58l-2.08,2.92c-.39.55-1.2.56-1.61.03Z"/>
    <line class="cls-1" x1="59.78" y1="62.27" x2="59.78" y2="71.33"/>
    <path class="cls-1" d="M70.83,66.32c-1.82,3.95-6.09,6.72-11.06,6.72s-9.21-2.75-11.04-6.68"/>
    <g>
      <g>
        <g>
          <path class="cls-2" d="M23.61,31.9c.14.98-.05,1.95-.32,2.66-.26.71-.54,1.21-.54,1.21,0,0-.53-.28-1.12-.8-.59-.52-1.26-1.31-1.46-2.33-.19-1.01.07-2.1.46-2.87.37-.78.78-1.3.78-1.3,0,0,.48.35.99.96.51.61,1.05,1.48,1.21,2.47Z"/>
          <path class="cls-2" d="M26.93,34.28c-.97.08-1.7.64-2.23,1.14-.51.51-.76,1.01-.76,1.01,0,0,.51.3,1.25.56.75.26,1.7.47,2.61.36.93-.1,1.58-.55,2.08-.93.49-.39.74-.77.74-.77,0,0-.46-.38-1.15-.75-.69-.37-1.61-.72-2.56-.63Z"/>
        </g>
        <g>
          <path class="cls-2" d="M20.03,37.7c.42,1.04.33,2.08.25,2.91-.1.82-.32,1.4-.32,1.4,0,0-.62-.18-1.37-.6-.74-.42-1.6-1.1-2.05-2.16-.47-1.06-.33-2.26-.13-3.2.25-.92.59-1.56.59-1.56,0,0,.58.28,1.25.82.67.55,1.42,1.36,1.79,2.38Z"/>
          <path class="cls-2" d="M24.08,39.53c-.95.31-1.7,1.02-2.1,1.69-.42.66-.6,1.23-.6,1.23,0,0,.61.21,1.46.32.85.11,1.94.14,2.87-.18.91-.33,1.6-.89,1.99-1.41.44-.5.64-.94.64-.94,0,0-.57-.31-1.38-.56-.81-.25-1.87-.44-2.88-.15Z"/>
        </g>
        <g>
          <path class="cls-2" d="M17.53,44.71c.62,1,.88,2.14.93,3.04.09.9.02,1.57.02,1.57,0,0-.7-.03-1.6-.3-.89-.27-1.98-.78-2.72-1.8-.69-1.01-.93-2.35-.87-3.4.02-.53.07-.99.13-1.31.06-.32.12-.52.12-.52,0,0,.68.16,1.51.59.82.43,1.83,1.12,2.47,2.13Z"/>
          <path class="cls-2" d="M22.25,45.72c-1.01.53-1.53,1.48-1.85,2.28-.28.8-.31,1.45-.31,1.45,0,0,.7.07,1.63-.02.93-.09,2.07-.33,2.98-.88.95-.54,1.43-1.31,1.79-1.92.17-.31.27-.59.33-.8.07-.2.11-.33.11-.33,0,0-.67-.2-1.6-.28-.94-.09-2.08-.04-3.07.5Z"/>
        </g>
        <g>
          <path class="cls-2" d="M16.57,52.79c.97.91,1.43,2.06,1.74,2.99.35.93.44,1.65.44,1.65,0,0-.75.15-1.76.1-1.01-.05-2.29-.32-3.35-1.22-1.03-.9-1.5-2.28-1.77-3.41-.14-.57-.19-1.07-.19-1.44-.01-.36,0-.58,0-.58,0,0,.76,0,1.75.25,1,.25,2.16.74,3.14,1.65Z"/>
          <path class="cls-2" d="M21.82,52.67c-.86.81-1.29,1.95-1.39,2.87-.07.91.06,1.61.06,1.61,0,0,.76-.11,1.71-.44.95-.33,2.11-.88,2.91-1.67.82-.8,1.26-1.72,1.41-2.45.07-.36.11-.68.15-.91.03-.23.03-.37.03-.37,0,0-.76-.04-1.76.09-.99.14-2.26.46-3.12,1.27Z"/>
        </g>
        <g>
          <path class="cls-2" d="M17.65,61.61c1.16.73,2.13,1.76,2.68,2.67.29.45.48.87.66,1.15.16.29.25.47.25.47,0,0-.74.37-1.83.61-1.08.23-2.54.34-3.84-.35-1.29-.69-2.36-1.98-2.84-3.15-.54-1.16-.75-2.12-.75-2.12,0,0,.81-.2,1.92-.19,1.11,0,2.54.2,3.75.92Z"/>
          <path class="cls-2" d="M23.15,60.07c-.8,1.11-.76,2.37-.66,3.37.06.5.16.93.29,1.21.12.29.2.46.2.46,0,0,.76-.33,1.66-.95.9-.62,1.92-1.5,2.61-2.58.7-1.08.73-2.08.82-2.89.03-.8-.14-1.35-.14-1.35,0,0-.82.16-1.83.56-1.01.41-2.21,1.07-2.96,2.16Z"/>
        </g>
        <g>
          <path class="cls-2" d="M21.33,70.62c.76.19,1.39.53,2.01.88.62.34,1.16.74,1.6,1.13.85.79,1.44,1.42,1.44,1.42,0,0-.66.62-1.72,1.2-1.06.58-2.54,1.12-4.12.79-.8-.16-1.56-.51-2.25-.95-.7-.43-1.22-1.02-1.7-1.54-.47-.53-.83-1.04-1.08-1.41-.26-.37-.36-.62-.36-.62,0,0,.79-.45,1.94-.75,1.17-.32,2.73-.53,4.23-.14Z"/>
          <path class="cls-2" d="M26.62,67.37c-.21.67-.3,1.38-.2,2,.1.62.3,1.21.52,1.7.41,1.02,1.02,1.59,1.02,1.59,0,0,.69-.58,1.44-1.5.74-.91,1.55-2.16,1.95-3.48.19-.65.24-1.25.21-1.78-.04-.52-.07-1.04-.19-1.44-.1-.41-.24-.74-.36-.96-.12-.22-.18-.36-.18-.36,0,0-.81.4-1.76,1.13-.94.72-1.99,1.75-2.44,3.1Z"/>
        </g>
        <g>
          <path class="cls-2" d="M27.97,78.93c1.64-.02,3.27.39,4.4.93.56.28,1.09.47,1.43.67.35.18.55.31.55.31,0,0-.48.86-1.38,1.8-.89.93-2.26,2-4.04,2.19-1.74.14-3.68-.48-4.95-1.36-1.32-.84-2.18-1.68-2.18-1.68,0,0,.67-.71,1.8-1.4,1.12-.7,2.68-1.4,4.36-1.46Z"/>
          <path class="cls-2" d="M32.43,73.87c-.09,1.59.76,2.82,1.51,3.74.37.47.81.74,1.1.97.3.21.49.32.49.32,0,0,.52-.83.99-2.04.48-1.22.89-2.74.87-4.2.01-1.51-.55-2.49-.96-3.31-.45-.78-.95-1.18-.95-1.18,0,0-.72.68-1.47,1.71-.75,1.03-1.53,2.44-1.58,3.99Z"/>
        </g>
        <g>
          <path class="cls-2" d="M37.66,85.39c.87-.36,1.75-.54,2.58-.6.41-.03.82-.04,1.2-.03.39-.02.77-.02,1.12,0,.7.03,1.29.12,1.71.19.42.09.67.14.67.14,0,0-.18,1.07-.75,2.35-.58,1.28-1.58,2.79-3.37,3.65-.45.21-.92.38-1.41.49-.48.1-.97.13-1.46.14-.98.02-1.96-.11-2.81-.28-1.67-.44-2.85-1.06-2.85-1.06,0,0,.46-.96,1.38-2.06.92-1.1,2.29-2.32,4-2.94Z"/>
          <path class="cls-2" d="M40.5,78.63c.25.77.69,1.43,1.2,1.99.25.28.53.53.8.76.29.2.58.36.86.51.56.29,1.08.49,1.46.62.38.13.61.17.61.17,0,0,.23-1.03.28-2.45.05-1.42-.06-3.21-.58-4.67-.13-.36-.29-.69-.45-.97-.16-.31-.33-.6-.51-.85-.36-.51-.74-.88-1.11-1.16-.68-.65-1.3-.92-1.3-.92,0,0-.51.94-.94,2.27-.43,1.33-.78,3.06-.31,4.7Z"/>
        </g>
      </g>
      <path class="cls-2" d="M28,26.57c-.93.86-1.35,2.05-1.51,2.97-.16.93-.06,1.63-.06,1.63,0,0,.69-.06,1.57-.28.89-.22,1.93-.61,2.75-1.36.82-.75,1.25-1.8,1.56-2.64.29-.85.39-1.56.39-1.56,0,0-.67-.12-1.62-.04-.95.07-2.15.43-3.08,1.28Z"/>
      <path class="cls-2" d="M51.66,85.24c-3.19-.1-6.38-.5-9.44-1.44-3.03-.98-5.98-2.27-8.62-4.06-2.62-1.8-5.07-3.87-7.1-6.33-2-2.46-3.76-5.14-5-8.07-2.5-5.83-3.34-12.37-2.27-18.61.51-3.12,1.49-6.16,2.9-8.99,1.4-2.83,3.18-5.47,5.34-7.77-2.13,2.33-3.88,4.99-5.24,7.82-1.37,2.83-2.31,5.87-2.78,8.98-.99,6.21-.08,12.67,2.45,18.39,1.26,2.87,3.02,5.49,5.02,7.89,2.02,2.39,4.45,4.4,7.04,6.13,2.61,1.72,5.51,2.94,8.48,3.87,2.99.88,6.11,1.23,9.22,1.29v.89Z"/>
    </g>
    <g>
      <g>
        <g>
          <path class="cls-2" d="M91.64,34.28c.97.08,1.7.64,2.23,1.14.51.51.76,1.01.76,1.01,0,0-.51.3-1.25.56-.75.26-1.7.47-2.61.36-.93-.1-1.58-.55-2.08-.93-.49-.39-.74-.77-.74-.77,0,0,.46-.38,1.15-.75.69-.37,1.61-.72,2.56-.63Z"/>
          <path class="cls-2" d="M94.96,31.9c-.14.98.05,1.95.32,2.66.26.71.54,1.21.54,1.21,0,0,.53-.28,1.12-.8.59-.52,1.26-1.31,1.46-2.33.19-1.01-.07-2.1-.46-2.87-.37-.78-.78-1.3-.78-1.3,0,0-.48.35-.99.96-.51.61-1.05,1.48-1.21,2.47Z"/>
        </g>
        <g>
          <path class="cls-2" d="M94.49,39.53c.95.31,1.7,1.02,2.1,1.69.42.66.6,1.23.6,1.23,0,0-.61.21-1.46.32-.85.11-1.94.14-2.87-.18-.91-.33-1.6-.89-1.99-1.41-.44-.5-.64-.94-.64-.94,0,0,.57-.31,1.38-.56.81-.25,1.87-.44,2.88-.15Z"/>
          <path class="cls-2" d="M98.54,37.7c-.42,1.04-.33,2.08-.25,2.91.1.82.32,1.4.32,1.4,0,0,.62-.18,1.37-.6.74-.42,1.6-1.1,2.05-2.16.47-1.06.33-2.26.13-3.2-.25-.92-.59-1.56-.59-1.56,0,0-.58.28-1.25.82-.67.55-1.42,1.36-1.79,2.38Z"/>
        </g>
        <g>
          <path class="cls-2" d="M96.32,45.72c1.01.53,1.53,1.48,1.85,2.28.28.8.31,1.45.31,1.45,0,0-.7.07-1.63-.02-.93-.09-2.07-.33-2.98-.88-.95-.54-1.43-1.31-1.79-1.92-.17-.31-.27-.59-.33-.8-.07-.2-.11-.33-.11-.33,0,0,.67-.2,1.6-.28.94-.09,2.08-.04,3.07.5Z"/>
          <path class="cls-2" d="M101.04,44.71c-.62,1-.88,2.14-.93,3.04-.09.9-.02,1.57-.02,1.57,0,0,.7-.03,1.6-.3.89-.27,1.98-.78,2.72-1.8.69-1.01.93-2.35.87-3.4-.02-.53-.07-.99-.13-1.31-.06-.32-.12-.52-.12-.52,0,0-.68.16-1.51.59-.82.43-1.83,1.12-2.47,2.13Z"/>
        </g>
        <g>
          <path class="cls-2" d="M96.75,52.67c.86.81,1.29,1.95,1.39,2.87.07.91-.06,1.61-.06,1.61,0,0-.76-.11-1.71-.44-.95-.33-2.11-.88-2.91-1.67-.82-.8-1.26-1.72-1.41-2.45-.07-.36-.11-.68-.15-.91-.03-.23-.03-.37-.03-.37,0,0,.76-.04,1.76.09.99.14,2.26.46,3.12,1.27Z"/>
          <path class="cls-2" d="M102,52.79c-.97.91-1.43,2.06-1.74,2.99-.35.93-.44,1.65-.44,1.65,0,0,.75.15,1.76.1,1.01-.05,2.29-.32,3.35-1.22,1.03-.9,1.5-2.28,1.77-3.41.14-.57.19-1.07.19-1.44.01-.36,0-.58,0-.58,0,0-.76,0-1.75.25-1,.25-2.16.74-3.14,1.65Z"/>
        </g>
        <g>
          <path class="cls-2" d="M95.42,60.07c.8,1.11.76,2.37.66,3.37-.06.5-.16.93-.29,1.21-.12.29-.2.46-.2.46,0,0-.76-.33-1.66-.95-.9-.62-1.92-1.5-2.61-2.58-.7-1.08-.73-2.08-.82-2.89-.03-.8.14-1.35.14-1.35,0,0,.82.16,1.83.56,1.01.41,2.21,1.07,2.96,2.16Z"/>
          <path class="cls-2" d="M100.92,61.61c-1.16.73-2.13,1.76-2.68,2.67-.29.45-.48.87-.66,1.15-.16.29-.25.47-.25.47,0,0,.74.37,1.83.61,1.08.23,2.54.34,3.84-.35,1.29-.69,2.36-1.98,2.84-3.15.54-1.16.75-2.12.75-2.12,0,0-.81-.2-1.92-.19-1.11,0-2.54.2-3.75.92Z"/>
        </g>
        <g>
          <path class="cls-2" d="M91.95,67.37c.21.67.3,1.38.2,2-.1.62-.3,1.21-.52,1.7-.41,1.02-1.02,1.59-1.02,1.59,0,0-.69-.58-1.44-1.5-.74-.91-1.55-2.16-1.95-3.48-.19-.65-.24-1.25-.21-1.78.04-.52.07-1.04.19-1.44.1-.41.24-.74.36-.96.12-.22.18-.36.18-.36,0,0,.81.4,1.76,1.13.94.72,1.99,1.75,2.44,3.1Z"/>
          <path class="cls-2" d="M97.24,70.62c-.76.19-1.39.53-2.01.88-.62.34-1.16.74-1.6,1.13-.85.79-1.44,1.42-1.44,1.42,0,0,.66.62,1.72,1.2,1.06.58,2.54,1.12,4.12.79.8-.16,1.56-.51,2.25-.95.7-.43,1.22-1.02,1.7-1.54.47-.53.83-1.04,1.08-1.41.26-.37.36-.62.36-.62,0,0-.79-.45-1.94-.75-1.17-.32-2.73-.53-4.23-.14Z"/>
        </g>
        <g>
          <path class="cls-2" d="M86.14,73.87c.09,1.59-.76,2.82-1.51,3.74-.37.47-.81.74-1.1.97-.3.21-.49.32-.49.32,0,0-.52-.83-.99-2.04-.48-1.22-.89-2.74-.87-4.2-.01-1.51.55-2.49.96-3.31.45-.78.95-1.18.95-1.18,0,0,.72.68,1.47,1.71.75,1.03,1.53,2.44,1.58,3.99Z"/>
          <path class="cls-2" d="M90.6,78.93c-1.64-.02-3.27.39-4.4.93-.56.28-1.09.47-1.43.67-.35.18-.55.31-.55.31,0,0,.48.86,1.38,1.8.89.93,2.26,2,4.04,2.19,1.74.14,3.68-.48,4.95-1.36,1.32-.84,2.18-1.68,2.18-1.68,0,0-.67-.71-1.8-1.4-1.12-.7-2.68-1.4-4.36-1.46Z"/>
        </g>
        <g>
          <path class="cls-2" d="M78.07,78.63c-.25.77-.69,1.43-1.2,1.99-.25.28-.53.53-.8.76-.29.2-.58.36-.86.51-.56.29-1.08.49-1.46.62-.38.13-.61.17-.61.17,0,0-.23-1.03-.28-2.45-.05-1.42.06-3.21.58-4.67.13-.36.29-.69.45-.97.16-.31.33-.6.51-.85.36-.51.74-.88,1.11-1.16.68-.65,1.3-.92,1.3-.92,0,0,.51.94.94,2.27.43,1.33.78,3.06.31,4.7Z"/>
          <path class="cls-2" d="M80.9,85.39c-.87-.36-1.75-.54-2.58-.6-.41-.03-.82-.04-1.2-.03-.39-.02-.77-.02-1.12,0-.7.03-1.29.12-1.71.19-.42.09-.67.14-.67.14,0,0,.18,1.07.75,2.35.58,1.28,1.58,2.79,3.37,3.65.45.21.92.38,1.41.49.48.1.97.13,1.46.14.98.02,1.96-.11,2.81-.28,1.67-.44,2.85-1.06,2.85-1.06,0,0-.46-.96-1.38-2.06-.92-1.1-2.29-2.32-4-2.94Z"/>
        </g>
      </g>
      <path class="cls-2" d="M87.48,29.9c.8.74,1.84,1.11,2.72,1.33.88.21,1.56.27,1.56.27,0,0,.1-.7-.05-1.62-.15-.92-.56-2.1-1.47-2.94-.92-.84-2.1-1.19-3.04-1.25-.94-.08-1.61.05-1.61.05,0,0,.09.7.37,1.55.3.84.72,1.88,1.53,2.61Z"/>
      <path class="cls-2" d="M66.91,83.84c3.06-.07,6.12-.4,9.07-1.27,2.92-.91,5.77-2.11,8.34-3.81,2.55-1.7,4.94-3.68,6.93-6.03,1.96-2.36,3.7-4.94,4.94-7.77,2.49-5.63,3.39-11.99,2.42-18.11-.46-3.06-1.39-6.05-2.74-8.84-1.34-2.79-3.06-5.41-5.16-7.7,2.12,2.27,3.88,4.87,5.26,7.65,1.39,2.78,2.35,5.78,2.86,8.85,1.06,6.14.23,12.59-2.23,18.32-1.22,2.88-2.96,5.52-4.92,7.95-2,2.42-4.41,4.46-6.99,6.23-2.6,1.76-5.51,3.03-8.49,3.99-3.01.93-6.15,1.31-9.29,1.42v-.89Z"/>
    </g>
  </g>
  <g>
    <g>
      <path class="cls-3" d="M122.89,42.96c0,.43-.3.61-.7.61-.43,0-.7-.18-.7-.61v-12.44c0-.43.27-.61.7-.61.4,0,.7.18.7.62v4.11c2.42.64,5.39,1.71,7.81,2.87.3.14.43.38.43.67,0,.11-.02.22-.06.35-.11.27-.35.46-.64.46-.11,0-.22-.02-.34-.08-2.11-1.07-4.87-2.18-7.2-2.85v6.88ZM127.85,30.54c.18,0,.29.05.42.18.5.5,1.07,1.26,1.38,1.79.05.1.11.21.11.42,0,.24-.22.45-.53.45-.19,0-.32-.08-.42-.27-.34-.59-.82-1.25-1.26-1.74-.1-.11-.16-.24-.16-.38,0-.21.21-.43.46-.43ZM129.61,29.52c.18,0,.29.06.43.19.42.4,1.02,1.23,1.31,1.75.05.1.1.22.1.4,0,.19-.19.45-.5.45-.19,0-.3-.08-.42-.26-.35-.61-.77-1.23-1.2-1.7-.14-.14-.19-.22-.19-.42,0-.21.24-.42.46-.42Z"/>
      <path class="cls-3" d="M136.87,33.92c.22,0,.42.11.53.34.5.94,1.01,2.27,1.33,3.31.02.1.03.16.03.24,0,.27-.18.45-.45.53-.1.03-.18.05-.26.05-.26,0-.48-.13-.56-.4-.3-1.02-.82-2.34-1.28-3.25-.05-.08-.06-.14-.06-.22,0-.24.18-.45.42-.53.1-.05.21-.06.3-.06ZM146.3,34.22v.11c-.21,2.13-.9,4.27-2,5.75-1.25,1.65-3.23,2.94-5.38,3.39-.06.02-.13.02-.18.02-.29,0-.5-.16-.58-.43-.02-.08-.03-.16-.03-.24,0-.26.16-.46.45-.53,1.79-.43,3.63-1.5,4.71-2.99.96-1.33,1.52-3.25,1.73-5.19.02-.35.32-.5.59-.5h.08c.4.06.61.26.61.61ZM140.23,33.28c.22,0,.42.11.54.35.5.94.96,2.18,1.25,3.27.02.05.02.11.02.16,0,.24-.14.45-.43.54-.1.02-.18.03-.27.03-.26,0-.5-.13-.54-.37-.27-1.02-.77-2.3-1.2-3.17-.05-.08-.06-.16-.06-.24,0-.22.18-.42.42-.51.1-.05.19-.06.29-.06Z"/>
      <path class="cls-3" d="M155.19,33.28c-.93,1.44-2.21,2.77-3.62,3.7-.14.1-.27.13-.42.13-.21,0-.4-.1-.54-.29-.08-.11-.13-.26-.13-.4,0-.22.1-.45.34-.61,1.58-1.02,3.19-2.79,4.26-5.46.11-.29.3-.46.62-.46.08,0,.18.02.29.05.34.1.5.32.5.59,0,.06-.02.13-.03.19-.1.34-.32.78-.62,1.31l5.01-.1c1.02-.02,1.67.56,1.67,1.6,0,.19-.02.38-.06.61-.96,4.53-4.15,8.2-9.6,9.51-.06.02-.13.02-.19.02-.3,0-.56-.16-.66-.46-.02-.08-.03-.16-.03-.22,0-.3.19-.54.53-.62,4.67-1.23,7.54-4.08,8.5-8.42.02-.11.03-.21.03-.29,0-.3-.16-.45-.61-.45h-.06l-5.15.08ZM161.39,29.52c.18,0,.29.05.42.18.5.5,1.07,1.26,1.38,1.79.05.1.11.21.11.42,0,.24-.22.45-.53.45-.19,0-.32-.08-.42-.27-.34-.59-.82-1.25-1.26-1.74-.1-.11-.16-.24-.16-.38,0-.21.21-.43.46-.43ZM163.39,28.8c.18,0,.29.06.43.19.42.4,1.02,1.23,1.31,1.74.05.1.1.22.1.4,0,.19-.19.45-.5.45-.19,0-.3-.08-.42-.26-.35-.61-.77-1.23-1.2-1.7-.14-.14-.19-.22-.19-.42,0-.21.24-.42.46-.42Z"/>
      <path class="cls-3" d="M168.23,32.42c-.38,0-.59-.27-.59-.7,0-.38.22-.64.59-.64l8.15-.08c.69,0,1.14.22,1.42.64.13.22.21.48.21.8,0,.27-.06.59-.18.93-.53,1.42-1.42,2.78-2.54,4.16,1.79,1.39,3.1,2.43,4.45,3.99.14.18.22.37.22.56s-.08.37-.21.51c-.14.16-.35.24-.56.24s-.42-.08-.58-.26c-1.2-1.44-2.45-2.64-4.23-4.03-1.78,1.95-4.29,3.51-6.77,4.43-.13.05-.26.08-.38.08-.27,0-.5-.13-.59-.4-.03-.08-.05-.18-.05-.27,0-.29.18-.58.48-.69,1.94-.74,3.97-1.89,5.68-3.46,1.66-1.54,2.99-3.41,3.62-5.2.05-.14.08-.26.08-.35,0-.24-.18-.35-.58-.35l-7.65.1Z"/>
      <path class="cls-3" d="M187.7,33.23c-.93,1.44-2.21,2.77-3.62,3.7-.14.08-.27.13-.42.13-.21,0-.4-.11-.54-.29-.08-.11-.13-.26-.13-.42,0-.21.1-.45.34-.59,1.58-1.02,3.19-2.79,4.26-5.46.11-.29.3-.46.62-.46.08,0,.18.02.29.05.34.08.5.32.5.58,0,.06-.02.14-.03.21-.1.34-.32.78-.62,1.31l5.01-.1c1.02-.02,1.67.56,1.67,1.6,0,.19-.02.38-.06.61-.96,4.53-4.15,8.2-9.6,9.51-.06.02-.13.02-.19.02-.32,0-.56-.16-.66-.46-.02-.08-.03-.16-.03-.24,0-.29.18-.53.53-.61,4.67-1.23,7.54-4.08,8.5-8.42.02-.11.03-.19.03-.29,0-.3-.16-.45-.61-.45h-.06l-5.15.08Z"/>
      <path class="cls-3" d="M199.17,37.57c-.4,0-.62-.26-.62-.69s.22-.72.64-.72h12.15c.42,0,.64.3.64.72s-.22.69-.62.69h-12.18Z"/>
      <path class="cls-3" d="M217.4,30.98c0-.4.27-.66.69-.66s.7.24.7.67v3.46c0,2.58-.32,4.45-.88,5.76-.56,1.25-1.34,2.29-2.26,2.96-.19.16-.4.22-.59.22-.21,0-.42-.1-.54-.26-.13-.14-.18-.3-.18-.48,0-.22.11-.43.32-.56.82-.58,1.52-1.41,1.98-2.51.48-1.2.75-2.8.75-5.25v-3.36ZM221.59,30.86c0-.4.26-.64.69-.64.4,0,.7.24.7.64l-.06,10.24c0,.29.13.45.4.45.11,0,.27-.03.46-.11,1.79-.78,2.71-2.21,3.52-3.95.13-.26.3-.37.53-.37.11,0,.24.03.35.1.22.1.37.32.37.58,0,.08-.02.18-.06.29-.98,2.42-2.93,4.39-4.82,4.85-.29.06-.54.1-.77.1-.9,0-1.38-.51-1.38-1.54l.06-10.63Z"/>
    </g>
    <g>
      <path class="cls-3" d="M131.66,58.04c1.15,0,1.85.29,2.3.86.36.43.5,1.03.5,1.73,0,.22-.02.43-.05.67-1.03,7.3-6.07,12.77-14.04,14.74-.14.05-.29.07-.43.07-.46,0-.77-.24-.91-.67-.02-.12-.05-.26-.05-.38,0-.48.29-.86.77-1.01,6.91-1.82,11.62-6.36,12.41-12.82.02-.12.02-.24.02-.36,0-.62-.31-.79-1.06-.79h-13.99c-.55,0-.86-.43-.86-1.03s.34-1.01.86-1.01h14.52Z"/>
      <path class="cls-3" d="M155.03,61.57c.86,0,1.44.26,1.8.77.19.29.31.65.31,1.08,0,.41-.1.84-.31,1.32-.98,2.09-3.07,3.96-4.97,4.66-.14.05-.29.07-.43.07-.34,0-.62-.17-.82-.53-.1-.14-.12-.31-.12-.48,0-.34.17-.65.43-.74,1.61-.62,3-1.82,3.86-3.36.12-.19.19-.38.19-.53,0-.24-.19-.38-.62-.38h-12.19c-.46,0-.77-.43-.77-.96,0-.48.31-.91.79-.91h12.84ZM149.65,65.84c0,3.29-.48,5.21-1.2,6.72-1.01,2.11-2.93,3.48-4.99,4.22-.12.05-.26.07-.38.07-.38,0-.74-.22-.89-.58-.05-.12-.07-.26-.07-.38,0-.38.24-.77.6-.89,1.8-.6,3.24-1.85,4.01-3.38.7-1.39.96-2.88.96-5.78,0-.58.5-.91,1.01-.91s.96.34.96.91Z"/>
      <path class="cls-3" d="M181.1,74.24c.48.14.7.55.7.96,0,.12-.02.24-.05.34-.14.5-.46.82-.91.82-.12,0-.24-.02-.38-.07-4.66-1.56-10.39-2.95-15.51-3.7-.48-.07-.77-.46-.77-.91,0-.12.02-.24.05-.36.12-.48.5-.77.96-.77h.17c5.14.74,10.97,2.16,15.75,3.7ZM179.66,66.18c.48.14.7.5.7.94,0,.1,0,.22-.02.31-.12.55-.46.82-.91.82-.12,0-.26-.02-.38-.07-3.94-1.15-8.3-2.09-12.41-2.59-.5-.05-.74-.43-.74-.86,0-.12.02-.22.05-.34.12-.55.48-.82.96-.82h.17c4.01.55,8.45,1.46,12.6,2.62ZM180.52,59.46c.48.14.7.53.7.96,0,.1,0,.22-.02.31-.12.53-.46.77-.89.77-.14,0-.29-.02-.43-.07-4.22-1.18-8.59-2.06-12.82-2.54-.5-.05-.77-.46-.77-.91,0-.1,0-.22.02-.31.12-.48.5-.79.98-.79h.17c4.37.5,8.69,1.37,13.06,2.59Z"/>
      <path class="cls-3" d="M192.35,68.17c0,.62-.43.98-1.08.98s-1.08-.34-1.08-.96v-10.54c0-.62.46-.98,1.08-.98s1.08.34,1.08.96v10.54ZM202.09,57.68c0-.62.41-1.01,1.03-1.01s1.13.34,1.13.96v7.82c0,3.6-.91,6.12-2.95,7.92-1.9,1.66-4.7,2.76-7.37,3.07h-.17c-.58,0-.96-.34-1.08-.84-.02-.1-.02-.17-.02-.26,0-.48.31-.86.86-.94,2.42-.31,4.82-1.27,6.34-2.64,1.56-1.42,2.23-3.48,2.23-6.6v-7.49Z"/>
      <path class="cls-3" d="M228.57,57.63c1.08,0,1.7.36,2.14.91.26.36.41.82.41,1.34,0,.46-.12.98-.36,1.51-1.22,2.59-3.86,4.9-6.29,5.83-.19.07-.36.12-.53.12-.34,0-.65-.14-.82-.46-.1-.17-.14-.36-.14-.53,0-.41.24-.74.6-.91,2.11-.91,4.13-2.62,5.23-4.66.1-.22.17-.43.17-.6,0-.34-.24-.58-.79-.58h-15.79c-.58,0-.86-.36-.86-.98s.31-1.01.86-1.01h16.18ZM221.68,62.77c-.02,4.2-.55,6.58-1.51,8.5-1.32,2.66-3.62,4.42-6.24,5.28-.17.07-.34.1-.5.1-.38,0-.67-.19-.86-.62-.07-.17-.1-.34-.1-.48,0-.38.22-.7.7-.86,2.28-.77,4.18-2.3,5.14-4.37.82-1.75,1.22-3.77,1.22-7.49,0-.7.46-1.03,1.1-1.03s1.06.34,1.06.98Z"/>
    </g>
  </g>
</svg>